<mxfile host="Electron" agent="Mozilla/5.0 (Windows NT 10.0; Win64; x64) AppleWebKit/537.36 (KHTML, like Gecko) draw.io/26.2.15 Chrome/134.0.6998.205 Electron/35.2.1 Safari/537.36" version="26.2.15">
  <diagram name="Page-1" id="10a91c8b-09ff-31b1-d368-03940ed4cc9e">
    <mxGraphModel dx="9503" dy="3434" grid="0" gridSize="10" guides="1" tooltips="1" connect="1" arrows="1" fold="1" page="0" pageScale="1" pageWidth="1100" pageHeight="850" background="none" math="0" shadow="0">
      <root>
        <mxCell id="0" />
        <mxCell id="1" parent="0" />
        <mxCell id="FM4OwIBT3BlbCwGh1Xsm-3" style="edgeStyle=orthogonalEdgeStyle;rounded=0;orthogonalLoop=1;jettySize=auto;html=1;exitX=1;exitY=0.5;exitDx=0;exitDy=0;entryX=0;entryY=0.5;entryDx=0;entryDy=0;endArrow=none;startFill=0;dashed=1;dashPattern=12 12;" edge="1" parent="1" source="FM4OwIBT3BlbCwGh1Xsm-1" target="FM4OwIBT3BlbCwGh1Xsm-2">
          <mxGeometry relative="1" as="geometry" />
        </mxCell>
        <mxCell id="FM4OwIBT3BlbCwGh1Xsm-176" style="edgeStyle=orthogonalEdgeStyle;rounded=0;orthogonalLoop=1;jettySize=auto;html=1;exitX=0.5;exitY=1;exitDx=0;exitDy=0;entryX=0.5;entryY=0;entryDx=0;entryDy=0;" edge="1" parent="1" source="FM4OwIBT3BlbCwGh1Xsm-1" target="FM4OwIBT3BlbCwGh1Xsm-162">
          <mxGeometry relative="1" as="geometry" />
        </mxCell>
        <mxCell id="FM4OwIBT3BlbCwGh1Xsm-1" value="Padre Manuel&lt;br&gt;&quot;Velho&quot;" style="rounded=1;whiteSpace=wrap;html=1;fillColor=#dae8fc;strokeColor=#6c8ebf;" vertex="1" parent="1">
          <mxGeometry x="-3270" y="80" width="120" height="60" as="geometry" />
        </mxCell>
        <mxCell id="FM4OwIBT3BlbCwGh1Xsm-5" style="edgeStyle=orthogonalEdgeStyle;rounded=0;orthogonalLoop=1;jettySize=auto;html=1;exitX=0.5;exitY=1;exitDx=0;exitDy=0;entryX=0.5;entryY=0;entryDx=0;entryDy=0;" edge="1" parent="1" source="FM4OwIBT3BlbCwGh1Xsm-2" target="FM4OwIBT3BlbCwGh1Xsm-4">
          <mxGeometry relative="1" as="geometry" />
        </mxCell>
        <mxCell id="FM4OwIBT3BlbCwGh1Xsm-13" style="edgeStyle=orthogonalEdgeStyle;rounded=0;orthogonalLoop=1;jettySize=auto;html=1;exitX=0.5;exitY=1;exitDx=0;exitDy=0;entryX=0.5;entryY=0;entryDx=0;entryDy=0;" edge="1" parent="1" source="FM4OwIBT3BlbCwGh1Xsm-2" target="FM4OwIBT3BlbCwGh1Xsm-6">
          <mxGeometry relative="1" as="geometry" />
        </mxCell>
        <mxCell id="FM4OwIBT3BlbCwGh1Xsm-14" style="edgeStyle=orthogonalEdgeStyle;rounded=0;orthogonalLoop=1;jettySize=auto;html=1;exitX=0.5;exitY=1;exitDx=0;exitDy=0;entryX=0.5;entryY=0;entryDx=0;entryDy=0;" edge="1" parent="1" source="FM4OwIBT3BlbCwGh1Xsm-2" target="FM4OwIBT3BlbCwGh1Xsm-7">
          <mxGeometry relative="1" as="geometry" />
        </mxCell>
        <mxCell id="FM4OwIBT3BlbCwGh1Xsm-15" style="edgeStyle=orthogonalEdgeStyle;rounded=0;orthogonalLoop=1;jettySize=auto;html=1;exitX=0.5;exitY=1;exitDx=0;exitDy=0;entryX=0.5;entryY=0;entryDx=0;entryDy=0;" edge="1" parent="1" source="FM4OwIBT3BlbCwGh1Xsm-2" target="FM4OwIBT3BlbCwGh1Xsm-8">
          <mxGeometry relative="1" as="geometry" />
        </mxCell>
        <mxCell id="FM4OwIBT3BlbCwGh1Xsm-16" style="edgeStyle=orthogonalEdgeStyle;rounded=0;orthogonalLoop=1;jettySize=auto;html=1;exitX=0.5;exitY=1;exitDx=0;exitDy=0;entryX=0.5;entryY=0;entryDx=0;entryDy=0;" edge="1" parent="1" source="FM4OwIBT3BlbCwGh1Xsm-2" target="FM4OwIBT3BlbCwGh1Xsm-9">
          <mxGeometry relative="1" as="geometry" />
        </mxCell>
        <mxCell id="FM4OwIBT3BlbCwGh1Xsm-17" style="edgeStyle=orthogonalEdgeStyle;rounded=0;orthogonalLoop=1;jettySize=auto;html=1;exitX=0.5;exitY=1;exitDx=0;exitDy=0;entryX=0.5;entryY=0;entryDx=0;entryDy=0;" edge="1" parent="1" source="FM4OwIBT3BlbCwGh1Xsm-2" target="FM4OwIBT3BlbCwGh1Xsm-10">
          <mxGeometry relative="1" as="geometry" />
        </mxCell>
        <mxCell id="FM4OwIBT3BlbCwGh1Xsm-18" style="edgeStyle=orthogonalEdgeStyle;rounded=0;orthogonalLoop=1;jettySize=auto;html=1;exitX=0.5;exitY=1;exitDx=0;exitDy=0;entryX=0.5;entryY=0;entryDx=0;entryDy=0;" edge="1" parent="1" source="FM4OwIBT3BlbCwGh1Xsm-2" target="FM4OwIBT3BlbCwGh1Xsm-11">
          <mxGeometry relative="1" as="geometry" />
        </mxCell>
        <mxCell id="FM4OwIBT3BlbCwGh1Xsm-19" style="edgeStyle=orthogonalEdgeStyle;rounded=0;orthogonalLoop=1;jettySize=auto;html=1;exitX=0.5;exitY=1;exitDx=0;exitDy=0;entryX=0.5;entryY=0;entryDx=0;entryDy=0;" edge="1" parent="1" source="FM4OwIBT3BlbCwGh1Xsm-2" target="FM4OwIBT3BlbCwGh1Xsm-12">
          <mxGeometry relative="1" as="geometry" />
        </mxCell>
        <mxCell id="FM4OwIBT3BlbCwGh1Xsm-2" value="Irmã" style="rounded=1;whiteSpace=wrap;html=1;fillColor=#dae8fc;strokeColor=#6c8ebf;" vertex="1" parent="1">
          <mxGeometry x="1340" y="80" width="120" height="60" as="geometry" />
        </mxCell>
        <mxCell id="FM4OwIBT3BlbCwGh1Xsm-4" value="Pedro" style="rounded=1;whiteSpace=wrap;html=1;fillColor=#dae8fc;strokeColor=#6c8ebf;" vertex="1" parent="1">
          <mxGeometry x="180" y="220" width="120" height="60" as="geometry" />
        </mxCell>
        <mxCell id="FM4OwIBT3BlbCwGh1Xsm-6" value="José" style="rounded=1;whiteSpace=wrap;html=1;fillColor=#dae8fc;strokeColor=#6c8ebf;" vertex="1" parent="1">
          <mxGeometry x="1250" y="220" width="120" height="60" as="geometry" />
        </mxCell>
        <mxCell id="FM4OwIBT3BlbCwGh1Xsm-7" value="?" style="rounded=1;whiteSpace=wrap;html=1;fillColor=#e1d5e7;strokeColor=#9673a6;" vertex="1" parent="1">
          <mxGeometry x="1410" y="220" width="120" height="60" as="geometry" />
        </mxCell>
        <mxCell id="FM4OwIBT3BlbCwGh1Xsm-8" value="?" style="rounded=1;whiteSpace=wrap;html=1;fillColor=#e1d5e7;strokeColor=#9673a6;" vertex="1" parent="1">
          <mxGeometry x="1570" y="220" width="120" height="60" as="geometry" />
        </mxCell>
        <mxCell id="FM4OwIBT3BlbCwGh1Xsm-9" value="?" style="rounded=1;whiteSpace=wrap;html=1;fillColor=#e1d5e7;strokeColor=#9673a6;" vertex="1" parent="1">
          <mxGeometry x="1730" y="220" width="120" height="60" as="geometry" />
        </mxCell>
        <mxCell id="FM4OwIBT3BlbCwGh1Xsm-10" value="Asclusão" style="rounded=1;whiteSpace=wrap;html=1;fillColor=#dae8fc;strokeColor=#6c8ebf;" vertex="1" parent="1">
          <mxGeometry x="1890" y="220" width="120" height="60" as="geometry" />
        </mxCell>
        <mxCell id="FM4OwIBT3BlbCwGh1Xsm-11" value="Ana" style="rounded=1;whiteSpace=wrap;html=1;fillColor=#dae8fc;strokeColor=#6c8ebf;" vertex="1" parent="1">
          <mxGeometry x="2050" y="220" width="120" height="60" as="geometry" />
        </mxCell>
        <mxCell id="FM4OwIBT3BlbCwGh1Xsm-159" style="edgeStyle=orthogonalEdgeStyle;rounded=0;orthogonalLoop=1;jettySize=auto;html=1;exitX=0.5;exitY=1;exitDx=0;exitDy=0;entryX=0.5;entryY=0;entryDx=0;entryDy=0;" edge="1" parent="1" source="FM4OwIBT3BlbCwGh1Xsm-12" target="FM4OwIBT3BlbCwGh1Xsm-152">
          <mxGeometry relative="1" as="geometry" />
        </mxCell>
        <mxCell id="FM4OwIBT3BlbCwGh1Xsm-160" style="edgeStyle=orthogonalEdgeStyle;rounded=0;orthogonalLoop=1;jettySize=auto;html=1;exitX=0.5;exitY=1;exitDx=0;exitDy=0;entryX=0.5;entryY=0;entryDx=0;entryDy=0;" edge="1" parent="1" source="FM4OwIBT3BlbCwGh1Xsm-12" target="FM4OwIBT3BlbCwGh1Xsm-153">
          <mxGeometry relative="1" as="geometry" />
        </mxCell>
        <mxCell id="FM4OwIBT3BlbCwGh1Xsm-161" style="edgeStyle=orthogonalEdgeStyle;rounded=0;orthogonalLoop=1;jettySize=auto;html=1;exitX=0.5;exitY=1;exitDx=0;exitDy=0;entryX=0.5;entryY=0;entryDx=0;entryDy=0;" edge="1" parent="1" source="FM4OwIBT3BlbCwGh1Xsm-12" target="FM4OwIBT3BlbCwGh1Xsm-154">
          <mxGeometry relative="1" as="geometry" />
        </mxCell>
        <mxCell id="FM4OwIBT3BlbCwGh1Xsm-12" value="Leoninda" style="rounded=1;whiteSpace=wrap;html=1;fillColor=#dae8fc;strokeColor=#6c8ebf;" vertex="1" parent="1">
          <mxGeometry x="2470" y="220" width="120" height="60" as="geometry" />
        </mxCell>
        <mxCell id="FM4OwIBT3BlbCwGh1Xsm-21" style="edgeStyle=orthogonalEdgeStyle;rounded=0;orthogonalLoop=1;jettySize=auto;html=1;exitX=1;exitY=0.5;exitDx=0;exitDy=0;entryX=0;entryY=0.5;entryDx=0;entryDy=0;endArrow=none;startFill=0;" edge="1" parent="1" source="FM4OwIBT3BlbCwGh1Xsm-22" target="FM4OwIBT3BlbCwGh1Xsm-4">
          <mxGeometry relative="1" as="geometry" />
        </mxCell>
        <mxCell id="FM4OwIBT3BlbCwGh1Xsm-20" value="Rosa" style="rounded=1;whiteSpace=wrap;html=1;" vertex="1" parent="1">
          <mxGeometry x="10" y="220" width="120" height="60" as="geometry" />
        </mxCell>
        <mxCell id="FM4OwIBT3BlbCwGh1Xsm-23" value="" style="edgeStyle=orthogonalEdgeStyle;rounded=0;orthogonalLoop=1;jettySize=auto;html=1;exitX=1;exitY=0.5;exitDx=0;exitDy=0;entryX=0;entryY=0.5;entryDx=0;entryDy=0;endArrow=none;startFill=0;" edge="1" parent="1" source="FM4OwIBT3BlbCwGh1Xsm-20" target="FM4OwIBT3BlbCwGh1Xsm-22">
          <mxGeometry relative="1" as="geometry">
            <mxPoint x="150" y="250" as="sourcePoint" />
            <mxPoint x="180" y="250" as="targetPoint" />
          </mxGeometry>
        </mxCell>
        <mxCell id="FM4OwIBT3BlbCwGh1Xsm-25" style="edgeStyle=orthogonalEdgeStyle;rounded=0;orthogonalLoop=1;jettySize=auto;html=1;exitX=0.5;exitY=1;exitDx=0;exitDy=0;entryX=0.5;entryY=0;entryDx=0;entryDy=0;" edge="1" parent="1" source="FM4OwIBT3BlbCwGh1Xsm-22" target="FM4OwIBT3BlbCwGh1Xsm-24">
          <mxGeometry relative="1" as="geometry" />
        </mxCell>
        <mxCell id="FM4OwIBT3BlbCwGh1Xsm-30" style="edgeStyle=orthogonalEdgeStyle;rounded=0;orthogonalLoop=1;jettySize=auto;html=1;exitX=0.5;exitY=1;exitDx=0;exitDy=0;entryX=0.5;entryY=0;entryDx=0;entryDy=0;" edge="1" parent="1" source="FM4OwIBT3BlbCwGh1Xsm-22" target="FM4OwIBT3BlbCwGh1Xsm-26">
          <mxGeometry relative="1" as="geometry" />
        </mxCell>
        <mxCell id="FM4OwIBT3BlbCwGh1Xsm-31" style="edgeStyle=orthogonalEdgeStyle;rounded=0;orthogonalLoop=1;jettySize=auto;html=1;exitX=0.5;exitY=1;exitDx=0;exitDy=0;entryX=0.5;entryY=0;entryDx=0;entryDy=0;" edge="1" parent="1" source="FM4OwIBT3BlbCwGh1Xsm-22" target="FM4OwIBT3BlbCwGh1Xsm-27">
          <mxGeometry relative="1" as="geometry" />
        </mxCell>
        <mxCell id="FM4OwIBT3BlbCwGh1Xsm-32" style="edgeStyle=orthogonalEdgeStyle;rounded=0;orthogonalLoop=1;jettySize=auto;html=1;exitX=0.5;exitY=1;exitDx=0;exitDy=0;entryX=0.5;entryY=0;entryDx=0;entryDy=0;" edge="1" parent="1" source="FM4OwIBT3BlbCwGh1Xsm-22" target="FM4OwIBT3BlbCwGh1Xsm-28">
          <mxGeometry relative="1" as="geometry" />
        </mxCell>
        <mxCell id="FM4OwIBT3BlbCwGh1Xsm-33" style="edgeStyle=orthogonalEdgeStyle;rounded=0;orthogonalLoop=1;jettySize=auto;html=1;exitX=0.5;exitY=1;exitDx=0;exitDy=0;entryX=0.5;entryY=0;entryDx=0;entryDy=0;" edge="1" parent="1" source="FM4OwIBT3BlbCwGh1Xsm-22" target="FM4OwIBT3BlbCwGh1Xsm-29">
          <mxGeometry relative="1" as="geometry" />
        </mxCell>
        <mxCell id="FM4OwIBT3BlbCwGh1Xsm-22" value="" style="ellipse;whiteSpace=wrap;html=1;aspect=fixed;" vertex="1" parent="1">
          <mxGeometry x="150" y="245" width="10" height="10" as="geometry" />
        </mxCell>
        <mxCell id="FM4OwIBT3BlbCwGh1Xsm-36" style="edgeStyle=orthogonalEdgeStyle;rounded=0;orthogonalLoop=1;jettySize=auto;html=1;exitX=0;exitY=0.5;exitDx=0;exitDy=0;entryX=1;entryY=0.5;entryDx=0;entryDy=0;endArrow=none;startFill=0;" edge="1" parent="1" source="FM4OwIBT3BlbCwGh1Xsm-24" target="FM4OwIBT3BlbCwGh1Xsm-35">
          <mxGeometry relative="1" as="geometry" />
        </mxCell>
        <mxCell id="FM4OwIBT3BlbCwGh1Xsm-24" value="Laurinda" style="rounded=1;whiteSpace=wrap;html=1;fillColor=#dae8fc;strokeColor=#6c8ebf;" vertex="1" parent="1">
          <mxGeometry x="-990" y="320" width="120" height="60" as="geometry" />
        </mxCell>
        <mxCell id="FM4OwIBT3BlbCwGh1Xsm-26" value="Constança" style="rounded=1;whiteSpace=wrap;html=1;fillColor=#dae8fc;strokeColor=#6c8ebf;" vertex="1" parent="1">
          <mxGeometry x="140" y="320" width="120" height="60" as="geometry" />
        </mxCell>
        <mxCell id="FM4OwIBT3BlbCwGh1Xsm-27" value="Isabel" style="rounded=1;whiteSpace=wrap;html=1;fillColor=#dae8fc;strokeColor=#6c8ebf;" vertex="1" parent="1">
          <mxGeometry x="280" y="320" width="120" height="60" as="geometry" />
        </mxCell>
        <mxCell id="FM4OwIBT3BlbCwGh1Xsm-39" style="edgeStyle=orthogonalEdgeStyle;rounded=0;orthogonalLoop=1;jettySize=auto;html=1;exitX=0.5;exitY=1;exitDx=0;exitDy=0;entryX=0.5;entryY=0;entryDx=0;entryDy=0;" edge="1" parent="1" source="FM4OwIBT3BlbCwGh1Xsm-28" target="FM4OwIBT3BlbCwGh1Xsm-38">
          <mxGeometry relative="1" as="geometry">
            <mxPoint x="480" y="410" as="sourcePoint" />
          </mxGeometry>
        </mxCell>
        <mxCell id="FM4OwIBT3BlbCwGh1Xsm-28" value="Angelica" style="rounded=1;whiteSpace=wrap;html=1;fillColor=#dae8fc;strokeColor=#6c8ebf;" vertex="1" parent="1">
          <mxGeometry x="420" y="320" width="120" height="60" as="geometry" />
        </mxCell>
        <mxCell id="FM4OwIBT3BlbCwGh1Xsm-44" style="edgeStyle=orthogonalEdgeStyle;rounded=0;orthogonalLoop=1;jettySize=auto;html=1;exitX=1;exitY=0.5;exitDx=0;exitDy=0;entryX=0;entryY=0.5;entryDx=0;entryDy=0;endArrow=none;startFill=0;" edge="1" parent="1" source="FM4OwIBT3BlbCwGh1Xsm-29" target="FM4OwIBT3BlbCwGh1Xsm-43">
          <mxGeometry relative="1" as="geometry" />
        </mxCell>
        <mxCell id="FM4OwIBT3BlbCwGh1Xsm-29" value="Ladislau" style="rounded=1;whiteSpace=wrap;html=1;fillColor=#dae8fc;strokeColor=#6c8ebf;" vertex="1" parent="1">
          <mxGeometry x="650" y="320" width="120" height="60" as="geometry" />
        </mxCell>
        <mxCell id="FM4OwIBT3BlbCwGh1Xsm-37" style="edgeStyle=orthogonalEdgeStyle;rounded=0;orthogonalLoop=1;jettySize=auto;html=1;exitX=1;exitY=0.5;exitDx=0;exitDy=0;entryX=0;entryY=0.5;entryDx=0;entryDy=0;endArrow=none;startFill=0;" edge="1" parent="1" source="FM4OwIBT3BlbCwGh1Xsm-34" target="FM4OwIBT3BlbCwGh1Xsm-35">
          <mxGeometry relative="1" as="geometry" />
        </mxCell>
        <mxCell id="FM4OwIBT3BlbCwGh1Xsm-34" value="Rosa" style="rounded=1;whiteSpace=wrap;html=1;" vertex="1" parent="1">
          <mxGeometry x="-1140" y="320" width="120" height="60" as="geometry" />
        </mxCell>
        <mxCell id="FM4OwIBT3BlbCwGh1Xsm-69" style="edgeStyle=orthogonalEdgeStyle;rounded=0;orthogonalLoop=1;jettySize=auto;html=1;exitX=0.5;exitY=1;exitDx=0;exitDy=0;entryX=0.5;entryY=0;entryDx=0;entryDy=0;" edge="1" parent="1" source="FM4OwIBT3BlbCwGh1Xsm-35" target="FM4OwIBT3BlbCwGh1Xsm-64">
          <mxGeometry relative="1" as="geometry" />
        </mxCell>
        <mxCell id="FM4OwIBT3BlbCwGh1Xsm-70" style="edgeStyle=orthogonalEdgeStyle;rounded=0;orthogonalLoop=1;jettySize=auto;html=1;exitX=0.5;exitY=1;exitDx=0;exitDy=0;entryX=0.5;entryY=0;entryDx=0;entryDy=0;" edge="1" parent="1" source="FM4OwIBT3BlbCwGh1Xsm-35" target="FM4OwIBT3BlbCwGh1Xsm-59">
          <mxGeometry relative="1" as="geometry" />
        </mxCell>
        <mxCell id="FM4OwIBT3BlbCwGh1Xsm-71" style="edgeStyle=orthogonalEdgeStyle;rounded=0;orthogonalLoop=1;jettySize=auto;html=1;exitX=0.5;exitY=1;exitDx=0;exitDy=0;entryX=0.5;entryY=0;entryDx=0;entryDy=0;" edge="1" parent="1" source="FM4OwIBT3BlbCwGh1Xsm-35" target="FM4OwIBT3BlbCwGh1Xsm-60">
          <mxGeometry relative="1" as="geometry" />
        </mxCell>
        <mxCell id="FM4OwIBT3BlbCwGh1Xsm-72" style="edgeStyle=orthogonalEdgeStyle;rounded=0;orthogonalLoop=1;jettySize=auto;html=1;exitX=0.5;exitY=1;exitDx=0;exitDy=0;entryX=0.5;entryY=0;entryDx=0;entryDy=0;" edge="1" parent="1" source="FM4OwIBT3BlbCwGh1Xsm-35" target="FM4OwIBT3BlbCwGh1Xsm-61">
          <mxGeometry relative="1" as="geometry" />
        </mxCell>
        <mxCell id="FM4OwIBT3BlbCwGh1Xsm-73" style="edgeStyle=orthogonalEdgeStyle;rounded=0;orthogonalLoop=1;jettySize=auto;html=1;exitX=0.5;exitY=1;exitDx=0;exitDy=0;entryX=0.5;entryY=0;entryDx=0;entryDy=0;" edge="1" parent="1" source="FM4OwIBT3BlbCwGh1Xsm-35" target="FM4OwIBT3BlbCwGh1Xsm-62">
          <mxGeometry relative="1" as="geometry" />
        </mxCell>
        <mxCell id="FM4OwIBT3BlbCwGh1Xsm-74" style="edgeStyle=orthogonalEdgeStyle;rounded=0;orthogonalLoop=1;jettySize=auto;html=1;exitX=0.5;exitY=1;exitDx=0;exitDy=0;entryX=0.5;entryY=0;entryDx=0;entryDy=0;" edge="1" parent="1" source="FM4OwIBT3BlbCwGh1Xsm-35" target="FM4OwIBT3BlbCwGh1Xsm-63">
          <mxGeometry relative="1" as="geometry" />
        </mxCell>
        <mxCell id="FM4OwIBT3BlbCwGh1Xsm-35" value="" style="ellipse;whiteSpace=wrap;html=1;aspect=fixed;" vertex="1" parent="1">
          <mxGeometry x="-1010" y="345" width="10" height="10" as="geometry" />
        </mxCell>
        <mxCell id="FM4OwIBT3BlbCwGh1Xsm-41" value="" style="edgeStyle=orthogonalEdgeStyle;rounded=0;orthogonalLoop=1;jettySize=auto;html=1;" edge="1" parent="1" source="FM4OwIBT3BlbCwGh1Xsm-38" target="FM4OwIBT3BlbCwGh1Xsm-40">
          <mxGeometry relative="1" as="geometry" />
        </mxCell>
        <mxCell id="FM4OwIBT3BlbCwGh1Xsm-38" value="Lili" style="rounded=1;whiteSpace=wrap;html=1;fillColor=#dae8fc;strokeColor=#6c8ebf;" vertex="1" parent="1">
          <mxGeometry x="420" y="430" width="120" height="60" as="geometry" />
        </mxCell>
        <mxCell id="FM4OwIBT3BlbCwGh1Xsm-40" value="Fernanda" style="rounded=1;whiteSpace=wrap;html=1;fillColor=#dae8fc;strokeColor=#6c8ebf;" vertex="1" parent="1">
          <mxGeometry x="420" y="540" width="120" height="60" as="geometry" />
        </mxCell>
        <mxCell id="FM4OwIBT3BlbCwGh1Xsm-45" style="edgeStyle=orthogonalEdgeStyle;rounded=0;orthogonalLoop=1;jettySize=auto;html=1;exitX=0;exitY=0.5;exitDx=0;exitDy=0;entryX=1;entryY=0.5;entryDx=0;entryDy=0;endArrow=none;startFill=0;" edge="1" parent="1" source="FM4OwIBT3BlbCwGh1Xsm-42" target="FM4OwIBT3BlbCwGh1Xsm-43">
          <mxGeometry relative="1" as="geometry" />
        </mxCell>
        <mxCell id="FM4OwIBT3BlbCwGh1Xsm-42" value="Balbiu" style="rounded=1;whiteSpace=wrap;html=1;" vertex="1" parent="1">
          <mxGeometry x="800" y="320" width="120" height="60" as="geometry" />
        </mxCell>
        <mxCell id="FM4OwIBT3BlbCwGh1Xsm-52" style="edgeStyle=orthogonalEdgeStyle;rounded=0;orthogonalLoop=1;jettySize=auto;html=1;exitX=0.5;exitY=1;exitDx=0;exitDy=0;entryX=0.5;entryY=0;entryDx=0;entryDy=0;" edge="1" parent="1" source="FM4OwIBT3BlbCwGh1Xsm-43" target="FM4OwIBT3BlbCwGh1Xsm-46">
          <mxGeometry relative="1" as="geometry" />
        </mxCell>
        <mxCell id="FM4OwIBT3BlbCwGh1Xsm-53" style="edgeStyle=orthogonalEdgeStyle;rounded=0;orthogonalLoop=1;jettySize=auto;html=1;exitX=0.5;exitY=1;exitDx=0;exitDy=0;entryX=0.5;entryY=0;entryDx=0;entryDy=0;" edge="1" parent="1" source="FM4OwIBT3BlbCwGh1Xsm-43" target="FM4OwIBT3BlbCwGh1Xsm-47">
          <mxGeometry relative="1" as="geometry" />
        </mxCell>
        <mxCell id="FM4OwIBT3BlbCwGh1Xsm-43" value="" style="ellipse;whiteSpace=wrap;html=1;aspect=fixed;" vertex="1" parent="1">
          <mxGeometry x="780" y="345" width="10" height="10" as="geometry" />
        </mxCell>
        <mxCell id="FM4OwIBT3BlbCwGh1Xsm-46" value="Pedro" style="rounded=1;whiteSpace=wrap;html=1;fillColor=#dae8fc;strokeColor=#6c8ebf;" vertex="1" parent="1">
          <mxGeometry x="570" y="430" width="120" height="60" as="geometry" />
        </mxCell>
        <mxCell id="FM4OwIBT3BlbCwGh1Xsm-54" style="edgeStyle=orthogonalEdgeStyle;rounded=0;orthogonalLoop=1;jettySize=auto;html=1;exitX=0.5;exitY=1;exitDx=0;exitDy=0;entryX=0.5;entryY=0;entryDx=0;entryDy=0;" edge="1" parent="1" source="FM4OwIBT3BlbCwGh1Xsm-47" target="FM4OwIBT3BlbCwGh1Xsm-48">
          <mxGeometry relative="1" as="geometry" />
        </mxCell>
        <mxCell id="FM4OwIBT3BlbCwGh1Xsm-55" style="edgeStyle=orthogonalEdgeStyle;rounded=0;orthogonalLoop=1;jettySize=auto;html=1;exitX=0.5;exitY=1;exitDx=0;exitDy=0;entryX=0.5;entryY=0;entryDx=0;entryDy=0;" edge="1" parent="1" source="FM4OwIBT3BlbCwGh1Xsm-47" target="FM4OwIBT3BlbCwGh1Xsm-49">
          <mxGeometry relative="1" as="geometry" />
        </mxCell>
        <mxCell id="FM4OwIBT3BlbCwGh1Xsm-57" style="edgeStyle=orthogonalEdgeStyle;rounded=0;orthogonalLoop=1;jettySize=auto;html=1;exitX=0.5;exitY=1;exitDx=0;exitDy=0;entryX=0.5;entryY=0;entryDx=0;entryDy=0;" edge="1" parent="1" source="FM4OwIBT3BlbCwGh1Xsm-47" target="FM4OwIBT3BlbCwGh1Xsm-50">
          <mxGeometry relative="1" as="geometry" />
        </mxCell>
        <mxCell id="FM4OwIBT3BlbCwGh1Xsm-58" style="edgeStyle=orthogonalEdgeStyle;rounded=0;orthogonalLoop=1;jettySize=auto;html=1;exitX=0.5;exitY=1;exitDx=0;exitDy=0;entryX=0.5;entryY=0;entryDx=0;entryDy=0;" edge="1" parent="1" source="FM4OwIBT3BlbCwGh1Xsm-47" target="FM4OwIBT3BlbCwGh1Xsm-51">
          <mxGeometry relative="1" as="geometry" />
        </mxCell>
        <mxCell id="FM4OwIBT3BlbCwGh1Xsm-47" value="Malheita" style="rounded=1;whiteSpace=wrap;html=1;fillColor=#dae8fc;strokeColor=#6c8ebf;" vertex="1" parent="1">
          <mxGeometry x="900" y="430" width="120" height="60" as="geometry" />
        </mxCell>
        <mxCell id="FM4OwIBT3BlbCwGh1Xsm-48" value="Luis" style="rounded=1;whiteSpace=wrap;html=1;fillColor=#dae8fc;strokeColor=#6c8ebf;" vertex="1" parent="1">
          <mxGeometry x="700" y="540" width="120" height="60" as="geometry" />
        </mxCell>
        <mxCell id="FM4OwIBT3BlbCwGh1Xsm-49" value="Isabel" style="rounded=1;whiteSpace=wrap;html=1;fillColor=#dae8fc;strokeColor=#6c8ebf;" vertex="1" parent="1">
          <mxGeometry x="830" y="540" width="120" height="60" as="geometry" />
        </mxCell>
        <mxCell id="FM4OwIBT3BlbCwGh1Xsm-50" value="Ze" style="rounded=1;whiteSpace=wrap;html=1;fillColor=#dae8fc;strokeColor=#6c8ebf;" vertex="1" parent="1">
          <mxGeometry x="970" y="540" width="120" height="60" as="geometry" />
        </mxCell>
        <mxCell id="FM4OwIBT3BlbCwGh1Xsm-51" value="Pedro" style="rounded=1;whiteSpace=wrap;html=1;fillColor=#dae8fc;strokeColor=#6c8ebf;" vertex="1" parent="1">
          <mxGeometry x="1110" y="540" width="120" height="60" as="geometry" />
        </mxCell>
        <mxCell id="FM4OwIBT3BlbCwGh1Xsm-78" style="edgeStyle=orthogonalEdgeStyle;rounded=0;orthogonalLoop=1;jettySize=auto;html=1;exitX=0;exitY=0.5;exitDx=0;exitDy=0;entryX=1;entryY=0.5;entryDx=0;entryDy=0;endArrow=none;startFill=0;" edge="1" parent="1" source="FM4OwIBT3BlbCwGh1Xsm-59" target="FM4OwIBT3BlbCwGh1Xsm-76">
          <mxGeometry relative="1" as="geometry" />
        </mxCell>
        <mxCell id="FM4OwIBT3BlbCwGh1Xsm-59" value="Bé" style="rounded=1;whiteSpace=wrap;html=1;fillColor=#dae8fc;strokeColor=#6c8ebf;" vertex="1" parent="1">
          <mxGeometry x="-1810" y="430" width="120" height="60" as="geometry" />
        </mxCell>
        <mxCell id="FM4OwIBT3BlbCwGh1Xsm-113" style="edgeStyle=orthogonalEdgeStyle;rounded=0;orthogonalLoop=1;jettySize=auto;html=1;exitX=0.5;exitY=1;exitDx=0;exitDy=0;entryX=0.5;entryY=0;entryDx=0;entryDy=0;" edge="1" parent="1" source="FM4OwIBT3BlbCwGh1Xsm-60" target="FM4OwIBT3BlbCwGh1Xsm-109">
          <mxGeometry relative="1" as="geometry" />
        </mxCell>
        <mxCell id="FM4OwIBT3BlbCwGh1Xsm-114" style="edgeStyle=orthogonalEdgeStyle;rounded=0;orthogonalLoop=1;jettySize=auto;html=1;exitX=0.5;exitY=1;exitDx=0;exitDy=0;entryX=0.5;entryY=0;entryDx=0;entryDy=0;" edge="1" parent="1" source="FM4OwIBT3BlbCwGh1Xsm-60" target="FM4OwIBT3BlbCwGh1Xsm-110">
          <mxGeometry relative="1" as="geometry" />
        </mxCell>
        <mxCell id="FM4OwIBT3BlbCwGh1Xsm-60" value="Néu" style="rounded=1;whiteSpace=wrap;html=1;fillColor=#dae8fc;strokeColor=#6c8ebf;" vertex="1" parent="1">
          <mxGeometry x="-1610" y="430" width="120" height="60" as="geometry" />
        </mxCell>
        <mxCell id="FM4OwIBT3BlbCwGh1Xsm-61" value="Mimi" style="rounded=1;whiteSpace=wrap;html=1;fillColor=#dae8fc;strokeColor=#6c8ebf;" vertex="1" parent="1">
          <mxGeometry x="-1420" y="430" width="120" height="60" as="geometry" />
        </mxCell>
        <mxCell id="FM4OwIBT3BlbCwGh1Xsm-120" style="edgeStyle=orthogonalEdgeStyle;rounded=0;orthogonalLoop=1;jettySize=auto;html=1;exitX=0.5;exitY=1;exitDx=0;exitDy=0;entryX=0.5;entryY=0;entryDx=0;entryDy=0;" edge="1" parent="1" source="FM4OwIBT3BlbCwGh1Xsm-62" target="FM4OwIBT3BlbCwGh1Xsm-115">
          <mxGeometry relative="1" as="geometry" />
        </mxCell>
        <mxCell id="FM4OwIBT3BlbCwGh1Xsm-121" style="edgeStyle=orthogonalEdgeStyle;rounded=0;orthogonalLoop=1;jettySize=auto;html=1;exitX=0.5;exitY=1;exitDx=0;exitDy=0;entryX=0.5;entryY=0;entryDx=0;entryDy=0;" edge="1" parent="1" source="FM4OwIBT3BlbCwGh1Xsm-62" target="FM4OwIBT3BlbCwGh1Xsm-116">
          <mxGeometry relative="1" as="geometry" />
        </mxCell>
        <mxCell id="FM4OwIBT3BlbCwGh1Xsm-122" style="edgeStyle=orthogonalEdgeStyle;rounded=0;orthogonalLoop=1;jettySize=auto;html=1;exitX=0.5;exitY=1;exitDx=0;exitDy=0;entryX=0.5;entryY=0;entryDx=0;entryDy=0;" edge="1" parent="1" source="FM4OwIBT3BlbCwGh1Xsm-62" target="FM4OwIBT3BlbCwGh1Xsm-117">
          <mxGeometry relative="1" as="geometry" />
        </mxCell>
        <mxCell id="FM4OwIBT3BlbCwGh1Xsm-123" style="edgeStyle=orthogonalEdgeStyle;rounded=0;orthogonalLoop=1;jettySize=auto;html=1;exitX=0.5;exitY=1;exitDx=0;exitDy=0;entryX=0.5;entryY=0;entryDx=0;entryDy=0;" edge="1" parent="1" source="FM4OwIBT3BlbCwGh1Xsm-62" target="FM4OwIBT3BlbCwGh1Xsm-118">
          <mxGeometry relative="1" as="geometry" />
        </mxCell>
        <mxCell id="FM4OwIBT3BlbCwGh1Xsm-124" style="edgeStyle=orthogonalEdgeStyle;rounded=0;orthogonalLoop=1;jettySize=auto;html=1;exitX=0.5;exitY=1;exitDx=0;exitDy=0;entryX=0.5;entryY=0;entryDx=0;entryDy=0;" edge="1" parent="1" source="FM4OwIBT3BlbCwGh1Xsm-62" target="FM4OwIBT3BlbCwGh1Xsm-119">
          <mxGeometry relative="1" as="geometry" />
        </mxCell>
        <mxCell id="FM4OwIBT3BlbCwGh1Xsm-62" value="Pedro" style="rounded=1;whiteSpace=wrap;html=1;fillColor=#dae8fc;strokeColor=#6c8ebf;" vertex="1" parent="1">
          <mxGeometry x="-640" y="430" width="120" height="60" as="geometry" />
        </mxCell>
        <mxCell id="FM4OwIBT3BlbCwGh1Xsm-63" value="Cato" style="rounded=1;whiteSpace=wrap;html=1;fillColor=#dae8fc;strokeColor=#6c8ebf;" vertex="1" parent="1">
          <mxGeometry x="10" y="430" width="120" height="60" as="geometry" />
        </mxCell>
        <mxCell id="FM4OwIBT3BlbCwGh1Xsm-67" style="edgeStyle=orthogonalEdgeStyle;rounded=0;orthogonalLoop=1;jettySize=auto;html=1;exitX=0;exitY=0.5;exitDx=0;exitDy=0;entryX=1;entryY=0.5;entryDx=0;entryDy=0;endArrow=none;startFill=0;" edge="1" parent="1" source="FM4OwIBT3BlbCwGh1Xsm-64" target="FM4OwIBT3BlbCwGh1Xsm-66">
          <mxGeometry relative="1" as="geometry" />
        </mxCell>
        <mxCell id="FM4OwIBT3BlbCwGh1Xsm-64" value="Zeca" style="rounded=1;whiteSpace=wrap;html=1;fillColor=#dae8fc;strokeColor=#6c8ebf;" vertex="1" parent="1">
          <mxGeometry x="-2315" y="430" width="120" height="60" as="geometry" />
        </mxCell>
        <mxCell id="FM4OwIBT3BlbCwGh1Xsm-68" style="edgeStyle=orthogonalEdgeStyle;rounded=0;orthogonalLoop=1;jettySize=auto;html=1;exitX=1;exitY=0.5;exitDx=0;exitDy=0;entryX=0;entryY=0.5;entryDx=0;entryDy=0;endArrow=none;startFill=0;" edge="1" parent="1" source="FM4OwIBT3BlbCwGh1Xsm-65" target="FM4OwIBT3BlbCwGh1Xsm-66">
          <mxGeometry relative="1" as="geometry" />
        </mxCell>
        <mxCell id="FM4OwIBT3BlbCwGh1Xsm-65" value="Tininha" style="rounded=1;whiteSpace=wrap;html=1;" vertex="1" parent="1">
          <mxGeometry x="-2465" y="430" width="120" height="60" as="geometry" />
        </mxCell>
        <mxCell id="FM4OwIBT3BlbCwGh1Xsm-82" style="edgeStyle=orthogonalEdgeStyle;rounded=0;orthogonalLoop=1;jettySize=auto;html=1;exitX=0.5;exitY=1;exitDx=0;exitDy=0;entryX=0.5;entryY=0;entryDx=0;entryDy=0;" edge="1" parent="1" source="FM4OwIBT3BlbCwGh1Xsm-66" target="FM4OwIBT3BlbCwGh1Xsm-80">
          <mxGeometry relative="1" as="geometry" />
        </mxCell>
        <mxCell id="FM4OwIBT3BlbCwGh1Xsm-83" style="edgeStyle=orthogonalEdgeStyle;rounded=0;orthogonalLoop=1;jettySize=auto;html=1;exitX=0.5;exitY=1;exitDx=0;exitDy=0;entryX=0.5;entryY=0;entryDx=0;entryDy=0;" edge="1" parent="1" source="FM4OwIBT3BlbCwGh1Xsm-66" target="FM4OwIBT3BlbCwGh1Xsm-79">
          <mxGeometry relative="1" as="geometry" />
        </mxCell>
        <mxCell id="FM4OwIBT3BlbCwGh1Xsm-84" style="edgeStyle=orthogonalEdgeStyle;rounded=0;orthogonalLoop=1;jettySize=auto;html=1;exitX=0.5;exitY=1;exitDx=0;exitDy=0;entryX=0.5;entryY=0;entryDx=0;entryDy=0;" edge="1" parent="1" source="FM4OwIBT3BlbCwGh1Xsm-66" target="FM4OwIBT3BlbCwGh1Xsm-81">
          <mxGeometry relative="1" as="geometry" />
        </mxCell>
        <mxCell id="FM4OwIBT3BlbCwGh1Xsm-66" value="" style="ellipse;whiteSpace=wrap;html=1;aspect=fixed;" vertex="1" parent="1">
          <mxGeometry x="-2335" y="455" width="10" height="10" as="geometry" />
        </mxCell>
        <mxCell id="FM4OwIBT3BlbCwGh1Xsm-77" style="edgeStyle=orthogonalEdgeStyle;rounded=0;orthogonalLoop=1;jettySize=auto;html=1;exitX=1;exitY=0.5;exitDx=0;exitDy=0;entryX=0;entryY=0.5;entryDx=0;entryDy=0;endArrow=none;startFill=0;" edge="1" parent="1" source="FM4OwIBT3BlbCwGh1Xsm-75" target="FM4OwIBT3BlbCwGh1Xsm-76">
          <mxGeometry relative="1" as="geometry" />
        </mxCell>
        <mxCell id="FM4OwIBT3BlbCwGh1Xsm-75" value="Aurora" style="rounded=1;whiteSpace=wrap;html=1;" vertex="1" parent="1">
          <mxGeometry x="-1960" y="430" width="120" height="60" as="geometry" />
        </mxCell>
        <mxCell id="FM4OwIBT3BlbCwGh1Xsm-108" style="edgeStyle=orthogonalEdgeStyle;rounded=0;orthogonalLoop=1;jettySize=auto;html=1;exitX=0.5;exitY=1;exitDx=0;exitDy=0;entryX=0.5;entryY=0;entryDx=0;entryDy=0;" edge="1" parent="1" source="FM4OwIBT3BlbCwGh1Xsm-76" target="FM4OwIBT3BlbCwGh1Xsm-107">
          <mxGeometry relative="1" as="geometry" />
        </mxCell>
        <mxCell id="FM4OwIBT3BlbCwGh1Xsm-76" value="" style="ellipse;whiteSpace=wrap;html=1;aspect=fixed;" vertex="1" parent="1">
          <mxGeometry x="-1830" y="455" width="10" height="10" as="geometry" />
        </mxCell>
        <mxCell id="FM4OwIBT3BlbCwGh1Xsm-88" style="edgeStyle=orthogonalEdgeStyle;rounded=0;orthogonalLoop=1;jettySize=auto;html=1;exitX=0;exitY=0.5;exitDx=0;exitDy=0;entryX=1;entryY=0.5;entryDx=0;entryDy=0;endArrow=none;startFill=0;" edge="1" parent="1" source="FM4OwIBT3BlbCwGh1Xsm-79" target="FM4OwIBT3BlbCwGh1Xsm-86">
          <mxGeometry relative="1" as="geometry" />
        </mxCell>
        <mxCell id="FM4OwIBT3BlbCwGh1Xsm-79" value="Tita" style="rounded=1;whiteSpace=wrap;html=1;fillColor=#dae8fc;strokeColor=#6c8ebf;" vertex="1" parent="1">
          <mxGeometry x="-2700" y="540" width="120" height="60" as="geometry" />
        </mxCell>
        <mxCell id="FM4OwIBT3BlbCwGh1Xsm-91" style="edgeStyle=orthogonalEdgeStyle;rounded=0;orthogonalLoop=1;jettySize=auto;html=1;exitX=0;exitY=0.5;exitDx=0;exitDy=0;entryX=1;entryY=0.5;entryDx=0;entryDy=0;endArrow=none;startFill=0;" edge="1" parent="1" source="FM4OwIBT3BlbCwGh1Xsm-80" target="FM4OwIBT3BlbCwGh1Xsm-90">
          <mxGeometry relative="1" as="geometry" />
        </mxCell>
        <mxCell id="FM4OwIBT3BlbCwGh1Xsm-80" value="Zé" style="rounded=1;whiteSpace=wrap;html=1;fillColor=#dae8fc;strokeColor=#6c8ebf;" vertex="1" parent="1">
          <mxGeometry x="-2390" y="540" width="120" height="60" as="geometry" />
        </mxCell>
        <mxCell id="FM4OwIBT3BlbCwGh1Xsm-95" style="edgeStyle=orthogonalEdgeStyle;rounded=0;orthogonalLoop=1;jettySize=auto;html=1;exitX=0;exitY=0.5;exitDx=0;exitDy=0;entryX=1;entryY=0.5;entryDx=0;entryDy=0;endArrow=none;startFill=0;" edge="1" parent="1" source="FM4OwIBT3BlbCwGh1Xsm-81" target="FM4OwIBT3BlbCwGh1Xsm-94">
          <mxGeometry relative="1" as="geometry" />
        </mxCell>
        <mxCell id="FM4OwIBT3BlbCwGh1Xsm-81" value="Beto" style="rounded=1;whiteSpace=wrap;html=1;fillColor=#dae8fc;strokeColor=#6c8ebf;" vertex="1" parent="1">
          <mxGeometry x="-2090" y="540" width="120" height="60" as="geometry" />
        </mxCell>
        <mxCell id="FM4OwIBT3BlbCwGh1Xsm-87" style="edgeStyle=orthogonalEdgeStyle;rounded=0;orthogonalLoop=1;jettySize=auto;html=1;exitX=1;exitY=0.5;exitDx=0;exitDy=0;entryX=0;entryY=0.5;entryDx=0;entryDy=0;endArrow=none;startFill=0;" edge="1" parent="1" source="FM4OwIBT3BlbCwGh1Xsm-85" target="FM4OwIBT3BlbCwGh1Xsm-86">
          <mxGeometry relative="1" as="geometry" />
        </mxCell>
        <mxCell id="FM4OwIBT3BlbCwGh1Xsm-85" value="Joao Carlos&lt;div&gt;&quot;Tinoni&quot;&lt;/div&gt;" style="rounded=1;whiteSpace=wrap;html=1;" vertex="1" parent="1">
          <mxGeometry x="-2850" y="540" width="120" height="60" as="geometry" />
        </mxCell>
        <mxCell id="FM4OwIBT3BlbCwGh1Xsm-98" style="edgeStyle=orthogonalEdgeStyle;rounded=0;orthogonalLoop=1;jettySize=auto;html=1;exitX=0.5;exitY=1;exitDx=0;exitDy=0;entryX=0.5;entryY=0;entryDx=0;entryDy=0;" edge="1" parent="1" source="FM4OwIBT3BlbCwGh1Xsm-86" target="FM4OwIBT3BlbCwGh1Xsm-97">
          <mxGeometry relative="1" as="geometry" />
        </mxCell>
        <mxCell id="FM4OwIBT3BlbCwGh1Xsm-100" style="edgeStyle=orthogonalEdgeStyle;rounded=0;orthogonalLoop=1;jettySize=auto;html=1;exitX=0.5;exitY=1;exitDx=0;exitDy=0;entryX=0.5;entryY=0;entryDx=0;entryDy=0;" edge="1" parent="1" source="FM4OwIBT3BlbCwGh1Xsm-86" target="FM4OwIBT3BlbCwGh1Xsm-99">
          <mxGeometry relative="1" as="geometry" />
        </mxCell>
        <mxCell id="FM4OwIBT3BlbCwGh1Xsm-86" value="" style="ellipse;whiteSpace=wrap;html=1;aspect=fixed;" vertex="1" parent="1">
          <mxGeometry x="-2720" y="565" width="10" height="10" as="geometry" />
        </mxCell>
        <mxCell id="FM4OwIBT3BlbCwGh1Xsm-92" style="edgeStyle=orthogonalEdgeStyle;rounded=0;orthogonalLoop=1;jettySize=auto;html=1;exitX=1;exitY=0.5;exitDx=0;exitDy=0;entryX=0;entryY=0.5;entryDx=0;entryDy=0;endArrow=none;startFill=0;" edge="1" parent="1" source="FM4OwIBT3BlbCwGh1Xsm-89" target="FM4OwIBT3BlbCwGh1Xsm-90">
          <mxGeometry relative="1" as="geometry" />
        </mxCell>
        <mxCell id="FM4OwIBT3BlbCwGh1Xsm-89" value="Luis" style="rounded=1;whiteSpace=wrap;html=1;" vertex="1" parent="1">
          <mxGeometry x="-2540" y="540" width="120" height="60" as="geometry" />
        </mxCell>
        <mxCell id="FM4OwIBT3BlbCwGh1Xsm-102" style="edgeStyle=orthogonalEdgeStyle;rounded=0;orthogonalLoop=1;jettySize=auto;html=1;exitX=0.5;exitY=1;exitDx=0;exitDy=0;entryX=0.5;entryY=0;entryDx=0;entryDy=0;" edge="1" parent="1" source="FM4OwIBT3BlbCwGh1Xsm-90" target="FM4OwIBT3BlbCwGh1Xsm-101">
          <mxGeometry relative="1" as="geometry" />
        </mxCell>
        <mxCell id="FM4OwIBT3BlbCwGh1Xsm-90" value="" style="ellipse;whiteSpace=wrap;html=1;aspect=fixed;" vertex="1" parent="1">
          <mxGeometry x="-2410" y="565" width="10" height="10" as="geometry" />
        </mxCell>
        <mxCell id="FM4OwIBT3BlbCwGh1Xsm-96" style="edgeStyle=orthogonalEdgeStyle;rounded=0;orthogonalLoop=1;jettySize=auto;html=1;exitX=1;exitY=0.5;exitDx=0;exitDy=0;entryX=0;entryY=0.5;entryDx=0;entryDy=0;endArrow=none;startFill=0;" edge="1" parent="1" source="FM4OwIBT3BlbCwGh1Xsm-93" target="FM4OwIBT3BlbCwGh1Xsm-94">
          <mxGeometry relative="1" as="geometry" />
        </mxCell>
        <mxCell id="FM4OwIBT3BlbCwGh1Xsm-93" value="Isabel&lt;br&gt;&quot;Bebéu&quot;" style="rounded=1;whiteSpace=wrap;html=1;" vertex="1" parent="1">
          <mxGeometry x="-2240" y="540" width="120" height="60" as="geometry" />
        </mxCell>
        <mxCell id="FM4OwIBT3BlbCwGh1Xsm-105" style="edgeStyle=orthogonalEdgeStyle;rounded=0;orthogonalLoop=1;jettySize=auto;html=1;exitX=0.5;exitY=1;exitDx=0;exitDy=0;entryX=0.5;entryY=0;entryDx=0;entryDy=0;" edge="1" parent="1" source="FM4OwIBT3BlbCwGh1Xsm-94" target="FM4OwIBT3BlbCwGh1Xsm-103">
          <mxGeometry relative="1" as="geometry" />
        </mxCell>
        <mxCell id="FM4OwIBT3BlbCwGh1Xsm-106" style="edgeStyle=orthogonalEdgeStyle;rounded=0;orthogonalLoop=1;jettySize=auto;html=1;exitX=0.5;exitY=1;exitDx=0;exitDy=0;entryX=0.5;entryY=0;entryDx=0;entryDy=0;" edge="1" parent="1" source="FM4OwIBT3BlbCwGh1Xsm-94" target="FM4OwIBT3BlbCwGh1Xsm-104">
          <mxGeometry relative="1" as="geometry" />
        </mxCell>
        <mxCell id="FM4OwIBT3BlbCwGh1Xsm-94" value="" style="ellipse;whiteSpace=wrap;html=1;aspect=fixed;" vertex="1" parent="1">
          <mxGeometry x="-2110" y="565" width="10" height="10" as="geometry" />
        </mxCell>
        <mxCell id="FM4OwIBT3BlbCwGh1Xsm-97" value="João" style="rounded=1;whiteSpace=wrap;html=1;fillColor=#dae8fc;strokeColor=#6c8ebf;" vertex="1" parent="1">
          <mxGeometry x="-2840" y="650" width="120" height="60" as="geometry" />
        </mxCell>
        <mxCell id="FM4OwIBT3BlbCwGh1Xsm-99" value="Miguel" style="rounded=1;whiteSpace=wrap;html=1;fillColor=#dae8fc;strokeColor=#6c8ebf;" vertex="1" parent="1">
          <mxGeometry x="-2710" y="650" width="120" height="60" as="geometry" />
        </mxCell>
        <mxCell id="FM4OwIBT3BlbCwGh1Xsm-101" value="Luis" style="rounded=1;whiteSpace=wrap;html=1;fillColor=#dae8fc;strokeColor=#6c8ebf;" vertex="1" parent="1">
          <mxGeometry x="-2465" y="650" width="120" height="60" as="geometry" />
        </mxCell>
        <mxCell id="FM4OwIBT3BlbCwGh1Xsm-103" value="José" style="rounded=1;whiteSpace=wrap;html=1;fillColor=#dae8fc;strokeColor=#6c8ebf;" vertex="1" parent="1">
          <mxGeometry x="-2230" y="640" width="120" height="60" as="geometry" />
        </mxCell>
        <mxCell id="FM4OwIBT3BlbCwGh1Xsm-104" value="Luisa" style="rounded=1;whiteSpace=wrap;html=1;fillColor=#dae8fc;strokeColor=#6c8ebf;" vertex="1" parent="1">
          <mxGeometry x="-2100" y="640" width="120" height="60" as="geometry" />
        </mxCell>
        <mxCell id="FM4OwIBT3BlbCwGh1Xsm-107" value="Joca" style="rounded=1;whiteSpace=wrap;html=1;fillColor=#dae8fc;strokeColor=#6c8ebf;" vertex="1" parent="1">
          <mxGeometry x="-1885" y="540" width="120" height="60" as="geometry" />
        </mxCell>
        <mxCell id="FM4OwIBT3BlbCwGh1Xsm-112" style="edgeStyle=orthogonalEdgeStyle;rounded=0;orthogonalLoop=1;jettySize=auto;html=1;exitX=0.5;exitY=1;exitDx=0;exitDy=0;entryX=0.5;entryY=0;entryDx=0;entryDy=0;" edge="1" parent="1" source="FM4OwIBT3BlbCwGh1Xsm-109" target="FM4OwIBT3BlbCwGh1Xsm-111">
          <mxGeometry relative="1" as="geometry" />
        </mxCell>
        <mxCell id="FM4OwIBT3BlbCwGh1Xsm-109" value="Isabel" style="rounded=1;whiteSpace=wrap;html=1;fillColor=#dae8fc;strokeColor=#6c8ebf;" vertex="1" parent="1">
          <mxGeometry x="-1680" y="540" width="120" height="60" as="geometry" />
        </mxCell>
        <mxCell id="FM4OwIBT3BlbCwGh1Xsm-110" value="Ró" style="rounded=1;whiteSpace=wrap;html=1;fillColor=#dae8fc;strokeColor=#6c8ebf;" vertex="1" parent="1">
          <mxGeometry x="-1550" y="540" width="120" height="60" as="geometry" />
        </mxCell>
        <mxCell id="FM4OwIBT3BlbCwGh1Xsm-111" value="Bruno" style="rounded=1;whiteSpace=wrap;html=1;fillColor=#dae8fc;strokeColor=#6c8ebf;" vertex="1" parent="1">
          <mxGeometry x="-1680" y="640" width="120" height="60" as="geometry" />
        </mxCell>
        <mxCell id="FM4OwIBT3BlbCwGh1Xsm-128" style="edgeStyle=orthogonalEdgeStyle;rounded=0;orthogonalLoop=1;jettySize=auto;html=1;exitX=0.5;exitY=1;exitDx=0;exitDy=0;entryX=0.5;entryY=0;entryDx=0;entryDy=0;" edge="1" parent="1" source="FM4OwIBT3BlbCwGh1Xsm-115" target="FM4OwIBT3BlbCwGh1Xsm-126">
          <mxGeometry relative="1" as="geometry" />
        </mxCell>
        <mxCell id="FM4OwIBT3BlbCwGh1Xsm-129" style="edgeStyle=orthogonalEdgeStyle;rounded=0;orthogonalLoop=1;jettySize=auto;html=1;exitX=0.5;exitY=1;exitDx=0;exitDy=0;entryX=0.5;entryY=0;entryDx=0;entryDy=0;" edge="1" parent="1" source="FM4OwIBT3BlbCwGh1Xsm-115" target="FM4OwIBT3BlbCwGh1Xsm-125">
          <mxGeometry relative="1" as="geometry" />
        </mxCell>
        <mxCell id="FM4OwIBT3BlbCwGh1Xsm-115" value="Malheita" style="rounded=1;whiteSpace=wrap;html=1;fillColor=#dae8fc;strokeColor=#6c8ebf;" vertex="1" parent="1">
          <mxGeometry x="-1230" y="540" width="120" height="60" as="geometry" />
        </mxCell>
        <mxCell id="FM4OwIBT3BlbCwGh1Xsm-132" style="edgeStyle=orthogonalEdgeStyle;rounded=0;orthogonalLoop=1;jettySize=auto;html=1;exitX=0.5;exitY=1;exitDx=0;exitDy=0;entryX=0.5;entryY=0;entryDx=0;entryDy=0;" edge="1" parent="1" source="FM4OwIBT3BlbCwGh1Xsm-116" target="FM4OwIBT3BlbCwGh1Xsm-130">
          <mxGeometry relative="1" as="geometry" />
        </mxCell>
        <mxCell id="FM4OwIBT3BlbCwGh1Xsm-133" style="edgeStyle=orthogonalEdgeStyle;rounded=0;orthogonalLoop=1;jettySize=auto;html=1;exitX=0.5;exitY=1;exitDx=0;exitDy=0;entryX=0.5;entryY=0;entryDx=0;entryDy=0;" edge="1" parent="1" source="FM4OwIBT3BlbCwGh1Xsm-116" target="FM4OwIBT3BlbCwGh1Xsm-131">
          <mxGeometry relative="1" as="geometry" />
        </mxCell>
        <mxCell id="FM4OwIBT3BlbCwGh1Xsm-116" value="Zé Luis" style="rounded=1;whiteSpace=wrap;html=1;fillColor=#dae8fc;strokeColor=#6c8ebf;" vertex="1" parent="1">
          <mxGeometry x="-970" y="540" width="120" height="60" as="geometry" />
        </mxCell>
        <mxCell id="FM4OwIBT3BlbCwGh1Xsm-137" style="edgeStyle=orthogonalEdgeStyle;rounded=0;orthogonalLoop=1;jettySize=auto;html=1;exitX=0.5;exitY=1;exitDx=0;exitDy=0;entryX=0.5;entryY=0;entryDx=0;entryDy=0;" edge="1" parent="1" source="FM4OwIBT3BlbCwGh1Xsm-117" target="FM4OwIBT3BlbCwGh1Xsm-134">
          <mxGeometry relative="1" as="geometry" />
        </mxCell>
        <mxCell id="FM4OwIBT3BlbCwGh1Xsm-138" style="edgeStyle=orthogonalEdgeStyle;rounded=0;orthogonalLoop=1;jettySize=auto;html=1;exitX=0.5;exitY=1;exitDx=0;exitDy=0;entryX=0.5;entryY=0;entryDx=0;entryDy=0;" edge="1" parent="1" source="FM4OwIBT3BlbCwGh1Xsm-117" target="FM4OwIBT3BlbCwGh1Xsm-136">
          <mxGeometry relative="1" as="geometry" />
        </mxCell>
        <mxCell id="FM4OwIBT3BlbCwGh1Xsm-117" value="Toni" style="rounded=1;whiteSpace=wrap;html=1;fillColor=#dae8fc;strokeColor=#6c8ebf;" vertex="1" parent="1">
          <mxGeometry x="-640" y="540" width="120" height="60" as="geometry" />
        </mxCell>
        <mxCell id="FM4OwIBT3BlbCwGh1Xsm-143" style="edgeStyle=orthogonalEdgeStyle;rounded=0;orthogonalLoop=1;jettySize=auto;html=1;exitX=0.5;exitY=1;exitDx=0;exitDy=0;entryX=0.5;entryY=0;entryDx=0;entryDy=0;" edge="1" parent="1" source="FM4OwIBT3BlbCwGh1Xsm-118" target="FM4OwIBT3BlbCwGh1Xsm-142">
          <mxGeometry relative="1" as="geometry" />
        </mxCell>
        <mxCell id="FM4OwIBT3BlbCwGh1Xsm-118" value="Jó" style="rounded=1;whiteSpace=wrap;html=1;fillColor=#dae8fc;strokeColor=#6c8ebf;" vertex="1" parent="1">
          <mxGeometry x="-380" y="540" width="120" height="60" as="geometry" />
        </mxCell>
        <mxCell id="FM4OwIBT3BlbCwGh1Xsm-144" style="edgeStyle=elbowEdgeStyle;rounded=0;orthogonalLoop=1;jettySize=auto;html=1;exitX=0.5;exitY=1;exitDx=0;exitDy=0;entryX=0.5;entryY=0;entryDx=0;entryDy=0;elbow=vertical;" edge="1" parent="1" source="FM4OwIBT3BlbCwGh1Xsm-119" target="FM4OwIBT3BlbCwGh1Xsm-140">
          <mxGeometry relative="1" as="geometry" />
        </mxCell>
        <mxCell id="FM4OwIBT3BlbCwGh1Xsm-145" style="edgeStyle=orthogonalEdgeStyle;rounded=0;orthogonalLoop=1;jettySize=auto;html=1;exitX=0.5;exitY=1;exitDx=0;exitDy=0;entryX=0.5;entryY=0;entryDx=0;entryDy=0;" edge="1" parent="1" source="FM4OwIBT3BlbCwGh1Xsm-119" target="FM4OwIBT3BlbCwGh1Xsm-141">
          <mxGeometry relative="1" as="geometry" />
        </mxCell>
        <mxCell id="FM4OwIBT3BlbCwGh1Xsm-119" value="Belita" style="rounded=1;whiteSpace=wrap;html=1;fillColor=#dae8fc;strokeColor=#6c8ebf;" vertex="1" parent="1">
          <mxGeometry x="-185" y="540" width="120" height="60" as="geometry" />
        </mxCell>
        <mxCell id="FM4OwIBT3BlbCwGh1Xsm-125" value="Elsa" style="rounded=1;whiteSpace=wrap;html=1;fillColor=#dae8fc;strokeColor=#6c8ebf;" vertex="1" parent="1">
          <mxGeometry x="-1290" y="640" width="120" height="60" as="geometry" />
        </mxCell>
        <mxCell id="FM4OwIBT3BlbCwGh1Xsm-126" value="Eduardo" style="rounded=1;whiteSpace=wrap;html=1;fillColor=#dae8fc;strokeColor=#6c8ebf;" vertex="1" parent="1">
          <mxGeometry x="-1162.5" y="640" width="120" height="60" as="geometry" />
        </mxCell>
        <mxCell id="FM4OwIBT3BlbCwGh1Xsm-130" value="Pedro" style="rounded=1;whiteSpace=wrap;html=1;fillColor=#dae8fc;strokeColor=#6c8ebf;" vertex="1" parent="1">
          <mxGeometry x="-1030" y="640" width="120" height="60" as="geometry" />
        </mxCell>
        <mxCell id="FM4OwIBT3BlbCwGh1Xsm-131" value="Marta" style="rounded=1;whiteSpace=wrap;html=1;fillColor=#dae8fc;strokeColor=#6c8ebf;" vertex="1" parent="1">
          <mxGeometry x="-900" y="640" width="120" height="60" as="geometry" />
        </mxCell>
        <mxCell id="FM4OwIBT3BlbCwGh1Xsm-134" value="Claudio" style="rounded=1;whiteSpace=wrap;html=1;fillColor=#dae8fc;strokeColor=#6c8ebf;" vertex="1" parent="1">
          <mxGeometry x="-770" y="640" width="120" height="60" as="geometry" />
        </mxCell>
        <mxCell id="FM4OwIBT3BlbCwGh1Xsm-135" value="Pedro" style="rounded=1;whiteSpace=wrap;html=1;fillColor=#dae8fc;strokeColor=#6c8ebf;" vertex="1" parent="1">
          <mxGeometry x="-510" y="640" width="120" height="60" as="geometry" />
        </mxCell>
        <mxCell id="FM4OwIBT3BlbCwGh1Xsm-136" value="Barbara" style="rounded=1;whiteSpace=wrap;html=1;fillColor=#dae8fc;strokeColor=#6c8ebf;" vertex="1" parent="1">
          <mxGeometry x="-640" y="640" width="120" height="60" as="geometry" />
        </mxCell>
        <mxCell id="FM4OwIBT3BlbCwGh1Xsm-139" style="edgeStyle=orthogonalEdgeStyle;rounded=0;orthogonalLoop=1;jettySize=auto;html=1;exitX=0.5;exitY=1;exitDx=0;exitDy=0;entryX=0.462;entryY=0.007;entryDx=0;entryDy=0;entryPerimeter=0;" edge="1" parent="1" source="FM4OwIBT3BlbCwGh1Xsm-117" target="FM4OwIBT3BlbCwGh1Xsm-135">
          <mxGeometry relative="1" as="geometry" />
        </mxCell>
        <mxCell id="FM4OwIBT3BlbCwGh1Xsm-140" value="Pedro" style="rounded=1;whiteSpace=wrap;html=1;fillColor=#dae8fc;strokeColor=#6c8ebf;" vertex="1" parent="1">
          <mxGeometry x="-250" y="640" width="120" height="60" as="geometry" />
        </mxCell>
        <mxCell id="FM4OwIBT3BlbCwGh1Xsm-141" value="Ana" style="rounded=1;whiteSpace=wrap;html=1;fillColor=#dae8fc;strokeColor=#6c8ebf;" vertex="1" parent="1">
          <mxGeometry x="-120" y="640" width="120" height="60" as="geometry" />
        </mxCell>
        <mxCell id="FM4OwIBT3BlbCwGh1Xsm-142" value="?" style="rounded=1;whiteSpace=wrap;html=1;fillColor=#e1d5e7;strokeColor=#9673a6;" vertex="1" parent="1">
          <mxGeometry x="-380" y="640" width="120" height="60" as="geometry" />
        </mxCell>
        <mxCell id="FM4OwIBT3BlbCwGh1Xsm-157" style="edgeStyle=orthogonalEdgeStyle;rounded=0;orthogonalLoop=1;jettySize=auto;html=1;exitX=0.5;exitY=1;exitDx=0;exitDy=0;entryX=0.5;entryY=0;entryDx=0;entryDy=0;" edge="1" parent="1" source="FM4OwIBT3BlbCwGh1Xsm-152" target="FM4OwIBT3BlbCwGh1Xsm-155">
          <mxGeometry relative="1" as="geometry" />
        </mxCell>
        <mxCell id="FM4OwIBT3BlbCwGh1Xsm-158" style="edgeStyle=orthogonalEdgeStyle;rounded=0;orthogonalLoop=1;jettySize=auto;html=1;exitX=0.5;exitY=1;exitDx=0;exitDy=0;entryX=0.5;entryY=0;entryDx=0;entryDy=0;" edge="1" parent="1" source="FM4OwIBT3BlbCwGh1Xsm-152" target="FM4OwIBT3BlbCwGh1Xsm-156">
          <mxGeometry relative="1" as="geometry" />
        </mxCell>
        <mxCell id="FM4OwIBT3BlbCwGh1Xsm-152" value="Ana" style="rounded=1;whiteSpace=wrap;html=1;fillColor=#dae8fc;strokeColor=#6c8ebf;" vertex="1" parent="1">
          <mxGeometry x="2260" y="320" width="120" height="60" as="geometry" />
        </mxCell>
        <mxCell id="FM4OwIBT3BlbCwGh1Xsm-153" value="Angela" style="rounded=1;whiteSpace=wrap;html=1;fillColor=#dae8fc;strokeColor=#6c8ebf;" vertex="1" parent="1">
          <mxGeometry x="2470" y="320" width="120" height="60" as="geometry" />
        </mxCell>
        <mxCell id="FM4OwIBT3BlbCwGh1Xsm-154" value="?" style="rounded=1;whiteSpace=wrap;html=1;fillColor=#e1d5e7;strokeColor=#9673a6;" vertex="1" parent="1">
          <mxGeometry x="2610" y="320" width="120" height="60" as="geometry" />
        </mxCell>
        <mxCell id="FM4OwIBT3BlbCwGh1Xsm-155" value="Darcilia" style="rounded=1;whiteSpace=wrap;html=1;fillColor=#dae8fc;strokeColor=#6c8ebf;" vertex="1" parent="1">
          <mxGeometry x="2190" y="430" width="120" height="60" as="geometry" />
        </mxCell>
        <mxCell id="FM4OwIBT3BlbCwGh1Xsm-156" value="Alda" style="rounded=1;whiteSpace=wrap;html=1;fillColor=#dae8fc;strokeColor=#6c8ebf;" vertex="1" parent="1">
          <mxGeometry x="2330" y="430" width="120" height="60" as="geometry" />
        </mxCell>
        <mxCell id="FM4OwIBT3BlbCwGh1Xsm-173" style="edgeStyle=orthogonalEdgeStyle;rounded=0;orthogonalLoop=1;jettySize=auto;html=1;exitX=0.5;exitY=1;exitDx=0;exitDy=0;entryX=0.5;entryY=0;entryDx=0;entryDy=0;" edge="1" parent="1" source="FM4OwIBT3BlbCwGh1Xsm-162" target="FM4OwIBT3BlbCwGh1Xsm-165">
          <mxGeometry relative="1" as="geometry" />
        </mxCell>
        <mxCell id="FM4OwIBT3BlbCwGh1Xsm-174" style="edgeStyle=orthogonalEdgeStyle;rounded=0;orthogonalLoop=1;jettySize=auto;html=1;exitX=0.5;exitY=1;exitDx=0;exitDy=0;entryX=0.5;entryY=0;entryDx=0;entryDy=0;" edge="1" parent="1" source="FM4OwIBT3BlbCwGh1Xsm-162" target="FM4OwIBT3BlbCwGh1Xsm-164">
          <mxGeometry relative="1" as="geometry" />
        </mxCell>
        <mxCell id="FM4OwIBT3BlbCwGh1Xsm-175" style="edgeStyle=orthogonalEdgeStyle;rounded=0;orthogonalLoop=1;jettySize=auto;html=1;exitX=0.5;exitY=1;exitDx=0;exitDy=0;entryX=0.5;entryY=0;entryDx=0;entryDy=0;" edge="1" parent="1" source="FM4OwIBT3BlbCwGh1Xsm-162" target="FM4OwIBT3BlbCwGh1Xsm-166">
          <mxGeometry relative="1" as="geometry" />
        </mxCell>
        <mxCell id="FM4OwIBT3BlbCwGh1Xsm-162" value="Manuel" style="rounded=1;whiteSpace=wrap;html=1;fillColor=#dae8fc;strokeColor=#6c8ebf;" vertex="1" parent="1">
          <mxGeometry x="-3270" y="220" width="120" height="60" as="geometry" />
        </mxCell>
        <mxCell id="FM4OwIBT3BlbCwGh1Xsm-164" value="Ermelinda" style="rounded=1;whiteSpace=wrap;html=1;fillColor=#dae8fc;strokeColor=#6c8ebf;" vertex="1" parent="1">
          <mxGeometry x="-3550" y="320" width="120" height="60" as="geometry" />
        </mxCell>
        <mxCell id="FM4OwIBT3BlbCwGh1Xsm-170" style="edgeStyle=orthogonalEdgeStyle;rounded=0;orthogonalLoop=1;jettySize=auto;html=1;exitX=0.5;exitY=1;exitDx=0;exitDy=0;entryX=0.5;entryY=0;entryDx=0;entryDy=0;" edge="1" parent="1" source="FM4OwIBT3BlbCwGh1Xsm-165" target="FM4OwIBT3BlbCwGh1Xsm-167">
          <mxGeometry relative="1" as="geometry" />
        </mxCell>
        <mxCell id="FM4OwIBT3BlbCwGh1Xsm-171" style="edgeStyle=orthogonalEdgeStyle;rounded=0;orthogonalLoop=1;jettySize=auto;html=1;exitX=0.5;exitY=1;exitDx=0;exitDy=0;entryX=0.5;entryY=0;entryDx=0;entryDy=0;" edge="1" parent="1" source="FM4OwIBT3BlbCwGh1Xsm-165" target="FM4OwIBT3BlbCwGh1Xsm-168">
          <mxGeometry relative="1" as="geometry" />
        </mxCell>
        <mxCell id="FM4OwIBT3BlbCwGh1Xsm-172" style="edgeStyle=orthogonalEdgeStyle;rounded=0;orthogonalLoop=1;jettySize=auto;html=1;exitX=0.5;exitY=1;exitDx=0;exitDy=0;entryX=0.5;entryY=0;entryDx=0;entryDy=0;" edge="1" parent="1" source="FM4OwIBT3BlbCwGh1Xsm-165" target="FM4OwIBT3BlbCwGh1Xsm-169">
          <mxGeometry relative="1" as="geometry" />
        </mxCell>
        <mxCell id="FM4OwIBT3BlbCwGh1Xsm-165" value="Maria" style="rounded=1;whiteSpace=wrap;html=1;fillColor=#dae8fc;strokeColor=#6c8ebf;" vertex="1" parent="1">
          <mxGeometry x="-3270" y="320" width="120" height="60" as="geometry" />
        </mxCell>
        <mxCell id="FM4OwIBT3BlbCwGh1Xsm-166" value="?" style="rounded=1;whiteSpace=wrap;html=1;fillColor=#e1d5e7;strokeColor=#9673a6;" vertex="1" parent="1">
          <mxGeometry x="-2990" y="320" width="120" height="60" as="geometry" />
        </mxCell>
        <mxCell id="FM4OwIBT3BlbCwGh1Xsm-167" value="Torcato" style="rounded=1;whiteSpace=wrap;html=1;fillColor=#dae8fc;strokeColor=#6c8ebf;" vertex="1" parent="1">
          <mxGeometry x="-3410" y="430" width="120" height="60" as="geometry" />
        </mxCell>
        <mxCell id="FM4OwIBT3BlbCwGh1Xsm-168" value="Jacinta" style="rounded=1;whiteSpace=wrap;html=1;fillColor=#dae8fc;strokeColor=#6c8ebf;" vertex="1" parent="1">
          <mxGeometry x="-3270" y="430" width="120" height="60" as="geometry" />
        </mxCell>
        <mxCell id="FM4OwIBT3BlbCwGh1Xsm-169" value="Celeste" style="rounded=1;whiteSpace=wrap;html=1;fillColor=#dae8fc;strokeColor=#6c8ebf;" vertex="1" parent="1">
          <mxGeometry x="-3130" y="430" width="120" height="60" as="geometry" />
        </mxCell>
      </root>
    </mxGraphModel>
  </diagram>
</mxfile>
